<?xml version="1.0" encoding="UTF-8" standalone="no"?>
<!DOCTYPE svg PUBLIC "-//W3C//DTD SVG 1.1//EN" "http://www.w3.org/Graphics/SVG/1.1/DTD/svg11.dtd">
<svg width="100%" height="100%" viewBox="0 0 1920 600" version="1.1" xmlns="http://www.w3.org/2000/svg" xmlns:xlink="http://www.w3.org/1999/xlink" xml:space="preserve" xmlns:serif="http://www.serif.com/" style="fill-rule:evenodd;clip-rule:evenodd;stroke-linejoin:round;stroke-miterlimit:2;">
    <g transform="matrix(1.39363,0,0,1.39363,-324.324,-399.813)">
        <path d="M1509.85,384.247L1527.8,384.816L1555.72,385.101L1570.06,385.956L1577.08,388.235L1580.22,397.922L1577.37,460.599L1581.07,466.582L1592.56,467.021L1595.62,461.916L1595.18,389.42L1592.12,382.711L1586.14,377.022L1578.26,373.083L1541.36,371.625L1516.56,372.062L1511.16,376.584L1509.85,384.247Z" style="fill:rgb(37,82,153);"/>
    </g>
    <g transform="matrix(1.39363,0,0,1.39363,-324.324,-399.813)">
        <path d="M249.465,644.793L260.505,646.218L269.408,605.976L278.667,572.145L295.761,556.119L302.171,547.929L319.265,501.989L326.387,499.14L342.267,495.995L436.954,469.813L545,449.336L622.011,441.323L643.823,433.756L699.467,397.699L766.24,357.19L814.316,332.707L838.354,328.7L927.384,326.92L1139.72,331.816L1174.44,335.378L1234.09,354.074L1302.47,390.576L1358.29,419.956L1389.09,444.382L1398.83,449.397L1414.33,452.587L1454.22,455.094L1500.32,460.133L1510.81,461.272L1518.55,469.933L1533.6,493.172L1536.33,511.186L1536.56,552.439L1539.52,564.746L1547.73,575.231L1557.98,594.831L1557.76,626.056L1557.98,636.54L1561.4,641.326L1567.1,639.275L1570.06,630.159L1570.06,587.31L1552.06,559.96L1551.15,500.246L1546.82,482.241L1537.24,466.286L1526.53,452.839L1511.72,446.458L1479.58,442.127L1424.88,435.746L1406.65,430.276L1389.09,417.056L1339.64,385.376L1215.84,317.699L1167.94,303.098L1104.19,296.688L937.924,294.195L871.645,297.044L838.882,303.098L799.709,317.699L706.406,368.624L661.891,399.606L634.826,414.207L617.376,416.344L565.738,424.535L489.885,441.985L405.484,460.147L339.602,479.733L319.303,487.212L311.962,493.172L304.668,505.123L291.905,536.485L282.226,557.41L275.954,562.661L267.64,565.725L263.993,575.935L255.824,606.13L247.51,638.658L249.465,644.793Z" style="fill:rgb(37,82,153);"/>
    </g>
    <g transform="matrix(1.26468,0,0,1.32916,-291.535,-368.015)">
        <path d="M518.277,672.159L544.134,698.468C525.895,711.216 503.703,718.681 479.782,718.681C417.551,718.681 367.027,668.158 367.027,605.927C367.027,543.696 417.551,493.172 479.782,493.172C489.004,493.172 497.97,494.282 506.546,496.401L498.844,517.857C489.662,514.195 479.713,512.201 469.325,512.201C423.055,512.201 385.49,551.771 385.49,600.509C385.49,649.248 423.055,688.817 469.325,688.817C487.597,688.817 504.512,682.646 518.277,672.159Z" style="fill:rgb(37,82,153);"/>
    </g>
    <g transform="matrix(1.26468,0,0,1.32916,905.939,-368.015)">
        <path d="M536.8,672.457L557.948,689.805C535.941,707.034 510.61,713.902 486.688,713.902C424.457,713.902 367.027,668.158 367.027,605.927C367.027,543.696 417.551,493.172 479.782,493.172C489.004,493.172 501.988,495.046 520.209,499.842L512.507,514.798C503.324,511.137 485.339,511.054 469.325,512.201C423.186,515.506 385.49,551.771 385.49,600.509C385.49,649.248 423.055,688.817 469.325,688.817C477.065,688.817 488.512,689.257 499.46,687.245C514.358,684.508 528.865,678.503 536.8,672.457Z" style="fill:rgb(37,82,153);"/>
    </g>
    <g transform="matrix(1.55947,0,0,1.55947,-329.548,-940.779)">
        <g transform="matrix(180,0,0,180,622.312,941.296)">
            <path d="M0.858,-0.662L0.853,-0.644C0.828,-0.644 0.809,-0.641 0.795,-0.634C0.782,-0.627 0.771,-0.616 0.762,-0.6C0.753,-0.584 0.742,-0.551 0.727,-0.5L0.621,-0.132C0.61,-0.095 0.604,-0.071 0.604,-0.061C0.604,-0.05 0.609,-0.04 0.617,-0.031C0.626,-0.022 0.646,-0.018 0.679,-0.018L0.619,0.191L0.601,0.191C0.605,0.164 0.606,0.142 0.606,0.124C0.606,0.093 0.6,0.068 0.586,0.048C0.572,0.028 0.555,0.015 0.535,0.009C0.515,0.003 0.488,-0 0.454,-0L-0.032,-0L-0.027,-0.018C0,-0.018 0.02,-0.021 0.031,-0.027C0.041,-0.032 0.051,-0.043 0.059,-0.059C0.067,-0.075 0.078,-0.109 0.093,-0.161L0.195,-0.517C0.207,-0.558 0.213,-0.586 0.213,-0.6C0.213,-0.628 0.188,-0.643 0.139,-0.644L0.144,-0.662L0.465,-0.662L0.46,-0.644C0.421,-0.644 0.395,-0.636 0.383,-0.62C0.372,-0.604 0.359,-0.574 0.346,-0.528L0.234,-0.137C0.222,-0.098 0.217,-0.073 0.217,-0.064C0.217,-0.054 0.221,-0.047 0.229,-0.043C0.236,-0.039 0.253,-0.037 0.278,-0.037L0.375,-0.037C0.402,-0.037 0.42,-0.038 0.428,-0.042C0.436,-0.046 0.443,-0.054 0.45,-0.066C0.457,-0.079 0.466,-0.107 0.479,-0.15L0.589,-0.536C0.598,-0.567 0.603,-0.589 0.603,-0.601C0.603,-0.63 0.578,-0.644 0.527,-0.644L0.532,-0.662L0.858,-0.662Z" style="fill:rgb(51,51,51);fill-rule:nonzero;"/>
        </g>
        <g transform="matrix(180,0,0,180,762.321,941.296)">
            <path d="M0.16,-0.662L0.693,-0.662L0.643,-0.484L0.625,-0.484C0.626,-0.493 0.626,-0.502 0.626,-0.509C0.626,-0.543 0.616,-0.569 0.596,-0.588C0.576,-0.606 0.543,-0.617 0.496,-0.62L0.348,-0.121C0.34,-0.093 0.336,-0.073 0.336,-0.06C0.336,-0.047 0.341,-0.037 0.351,-0.03C0.361,-0.023 0.382,-0.019 0.413,-0.018L0.408,-0L0.08,-0L0.085,-0.018C0.119,-0.018 0.143,-0.024 0.159,-0.037C0.174,-0.049 0.188,-0.077 0.201,-0.121L0.348,-0.62C0.297,-0.618 0.255,-0.607 0.221,-0.586C0.187,-0.566 0.155,-0.532 0.127,-0.484L0.108,-0.484L0.16,-0.662Z" style="fill:rgb(51,51,51);fill-rule:nonzero;"/>
        </g>
        <g transform="matrix(180,0,0,180,876.755,941.296)">
            <path d="M0.207,-0.662L0.765,-0.662L0.76,-0.644C0.722,-0.644 0.695,-0.636 0.68,-0.619C0.665,-0.602 0.648,-0.561 0.629,-0.494L0.527,-0.135C0.517,-0.102 0.513,-0.078 0.513,-0.062C0.513,-0.045 0.517,-0.034 0.527,-0.029C0.537,-0.023 0.556,-0.02 0.584,-0.019L0.524,0.191L0.506,0.191C0.51,0.171 0.513,0.151 0.513,0.13C0.513,0.089 0.503,0.057 0.484,0.034C0.465,0.011 0.432,-0 0.384,-0L0.193,-0C0.145,-0 0.106,0.005 0.076,0.014C0.046,0.024 0.017,0.042 -0.011,0.07C-0.039,0.098 -0.068,0.139 -0.097,0.191L-0.115,0.191L-0.055,-0.019C-0.032,-0.019 -0.01,-0.024 0.01,-0.036C0.03,-0.048 0.056,-0.075 0.087,-0.115C0.118,-0.156 0.15,-0.21 0.182,-0.277C0.214,-0.344 0.239,-0.408 0.257,-0.469C0.276,-0.53 0.285,-0.572 0.285,-0.595C0.285,-0.615 0.279,-0.628 0.268,-0.635C0.256,-0.641 0.234,-0.644 0.202,-0.644L0.207,-0.662ZM0.343,-0.625L0.305,-0.493C0.298,-0.468 0.284,-0.428 0.263,-0.373C0.242,-0.317 0.215,-0.261 0.184,-0.203C0.152,-0.146 0.116,-0.09 0.077,-0.037L0.269,-0.037C0.31,-0.037 0.335,-0.041 0.344,-0.051C0.353,-0.06 0.365,-0.09 0.379,-0.142L0.518,-0.625L0.343,-0.625Z" style="fill:rgb(51,51,51);fill-rule:nonzero;"/>
        </g>
    </g>
</svg>
